<svg xmlns="http://www.w3.org/2000/svg" viewBox="0 0 120 120">
  <defs>
    <linearGradient id="g" x1="0" y1="0" x2="1" y2="1">
      <stop offset="0" stop-color="#f2e2ac"/><stop offset=".45" stop-color="#c8a24a"/><stop offset="1" stop-color="#8a6d2c"/>
    </linearGradient>
    <linearGradient id="l" x1="0" y1="0" x2="0" y2="1">
      <stop offset="0" stop-color="#1b4287"/><stop offset="1" stop-color="#08132a"/>
    </linearGradient>
  </defs>
  <rect width="120" height="120" rx="26" fill="url(#l)"/>
  <circle cx="60" cy="60" r="53" fill="none" stroke="url(#g)" stroke-width="3"/>
  <g transform="translate(60 33)" fill="url(#g)">
    <rect x="-6" y="-6" width="12" height="12"/>
    <rect x="-6" y="-6" width="12" height="12" transform="rotate(45)"/>
    <circle cx="0" cy="0" r="2.2" fill="#0b1a3a"/>
  </g>
  <g fill="url(#g)">
    <rect x="33" y="48" width="10" height="40" rx="1.5"/>
    <rect x="77" y="48" width="10" height="40" rx="1.5"/>
    <rect x="33" y="42" width="3" height="6"/><rect x="38.2" y="42" width="3" height="6"/>
    <rect x="78.8" y="42" width="3" height="6"/><rect x="84" y="42" width="3" height="6"/>
    <rect x="43" y="54" width="34" height="7" rx="1.5"/>
    <rect x="43" y="42.5" width="3" height="6"/><rect x="52.4" y="42.5" width="3" height="6"/>
    <rect x="64.6" y="42.5" width="3" height="6"/><rect x="74" y="42.5" width="3" height="6"/>
    <rect x="27" y="88" width="66" height="3.4" rx="1.7"/>
  </g>
  <path d="M50.5 88V69.8a9.5 9.5 0 0 1 19 0V88z" fill="#08132a" stroke="url(#g)" stroke-width="2.5"/>
</svg>
